<?xml version="1.0" encoding="iso-8859-1"?>
<!-- Generator: Adobe Illustrator 16.0.0, SVG Export Plug-In . SVG Version: 6.00 Build 0)  -->
<!DOCTYPE svg PUBLIC "-//W3C//DTD SVG 1.1//EN" "http://www.w3.org/Graphics/SVG/1.1/DTD/svg11.dtd">
<svg version="1.1" id="Capa_1" xmlns="http://www.w3.org/2000/svg" xmlns:xlink="http://www.w3.org/1999/xlink" x="0px" y="0px"
	 width="968.211px" height="968.211px" viewBox="0 0 968.211 968.211" style="enable-background:new 0 0 968.211 968.211;"
	 xml:space="preserve">
<g>
	<g>
		<path d="M537.434,334.065c19.887-34.633,93.672-60.351,181.672-60.351c87.965,0,161.729,25.698,181.648,60.311v-44.131
			c-19.92-34.613-93.684-60.31-181.648-60.31c-88,0-161.785,25.717-181.672,60.351V334.065z"/>
		<path d="M719.105,65.714c87.965,0,161.729,25.698,181.648,60.311v-49.19C900.754,34.4,819.422,0,719.094,0
			s-181.66,34.4-181.66,76.835v49.229C557.32,91.432,631.105,65.714,719.105,65.714z"/>
		<path d="M537.434,230.065c19.887-34.633,93.672-60.351,181.672-60.351c87.965,0,161.729,25.698,181.648,60.311v-44.131
			c-19.92-34.613-93.684-60.31-181.648-60.31c-88,0-161.785,25.717-181.672,60.351V230.065z"/>
		<path d="M967.75,958.211V705.033c0-4.107-2.512-7.799-6.334-9.305l-54.326-21.396c-3.822-1.506-6.334-5.195-6.334-9.305V393.894
			c-19.922-34.613-93.684-60.31-181.648-60.31c-87.996,0-161.781,25.714-181.672,60.344v15.31H77.458c-5.523,0-10,4.478-10,10
			v245.79c0,4.109-2.513,7.799-6.335,9.305L6.796,695.729c-3.823,1.506-6.335,5.197-6.335,9.305v253.178c0,5.523,4.477,10,10,10
			h191.328c5.523,0,10-4.477,10-10V830.217c0-5.523,4.477-10,10-10h177.99c5.523,0,10,4.477,10,10v127.994c0,5.523,4.478,10,10,10
			H957.75C963.273,968.211,967.75,963.734,967.75,958.211z M505.273,653.732c0,5.523-4.477,10-10,10H128.294
			c-5.523,0-10-4.477-10-10v-6.998c0-5.523,4.477-10,10-10h366.981c5.523,0,10,4.477,10,10v6.998H505.273z M505.273,596.732
			c0,5.523-4.477,10-10,10H128.294c-5.523,0-10-4.477-10-10v-6.998c0-5.523,4.477-10,10-10h366.981c5.523,0,10,4.477,10,10v6.998
			H505.273z M505.273,539.732c0,5.523-4.477,10-10,10H128.294c-5.523,0-10-4.477-10-10v-6.998c0-5.523,4.477-10,10-10h366.981
			c5.523,0,10,4.477,10,10v6.998H505.273z M505.273,482.733c0,5.523-4.477,10-10,10H128.294c-5.523,0-10-4.477-10-10v-6.999
			c0-5.523,4.477-10,10-10h366.981c5.523,0,10,4.477,10,10v6.999H505.273z M645.43,839.717c0,5.523-4.479,10-10,10h-87.996
			c-5.523,0-10-4.477-10-10v-27.998c0-5.523,4.477-10,10-10h87.996c5.521,0,10,4.477,10,10V839.717z M847.918,839.717
			c0,5.523-4.477,10-10,10h-87.994c-5.523,0-10-4.477-10-10v-27.998c0-5.523,4.477-10,10-10h87.994c5.523,0,10,4.477,10,10V839.717z
			"/>
	</g>
</g>
<g>
</g>
<g>
</g>
<g>
</g>
<g>
</g>
<g>
</g>
<g>
</g>
<g>
</g>
<g>
</g>
<g>
</g>
<g>
</g>
<g>
</g>
<g>
</g>
<g>
</g>
<g>
</g>
<g>
</g>
</svg>
